<svg width="22" height="22" viewBox="0 0 22 22" fill="none" xmlns="http://www.w3.org/2000/svg">
<path d="M7.9101 15.6176V18.0658C7.9101 18.7168 8.16465 19.3395 8.63131 19.7923C9.09798 20.2452 9.7202 20.5141 10.3848 20.5141H19.0253C19.6758 20.5141 20.3121 20.2593 20.7788 19.7923C21.2455 19.3395 21.5 18.7027 21.5 18.0658V3.36229C21.5 2.71132 21.2455 2.08865 20.7788 1.6358C20.3121 1.18294 19.6899 0.914062 19.0253 0.914062H10.3848C9.73434 0.914062 9.09798 1.16879 8.63131 1.6358C8.16465 2.08865 7.9101 2.72547 7.9101 3.36229V5.81052M15.3202 10.707H0.5M0.5 10.707L4.20505 14.3864M0.5 10.707L4.20505 7.02756" stroke="white" stroke-linecap="round" stroke-linejoin="round"/>
</svg>
