<svg width="42" height="41" viewBox="0 0 42 41" fill="none" xmlns="http://www.w3.org/2000/svg">
<path d="M1.11072 35.8534H9.55083C12.5586 38.7024 16.6168 40.4582 21.0812 40.4582C25.5455 40.4582 29.6007 38.7054 32.6115 35.8534H41.0516C41.2715 35.8534 41.473 35.7373 41.5799 35.548C41.6898 35.3587 41.6898 35.1266 41.5799 34.9373L37.3812 27.6636C37.6957 26.3842 37.8637 25.0498 37.8637 23.6757C37.8637 16.0508 32.752 9.60472 25.7776 7.56798L21.6094 0.349304C21.4995 0.159982 21.298 0.0439453 21.0812 0.0439453C20.8644 0.0439453 20.6598 0.159982 20.5529 0.349304L16.3848 7.56798C9.41037 9.60472 4.29866 16.0539 4.29866 23.6757C4.29866 25.0498 4.46966 26.3842 4.78113 27.6636L0.582447 34.9373C0.472518 35.1266 0.472518 35.3587 0.582447 35.548C0.692376 35.7373 0.893913 35.8534 1.11072 35.8534ZM10.0425 34.6319C8.19199 32.7692 6.81176 30.4393 6.09112 27.8407L17.197 8.6062C18.4398 8.28558 19.7407 8.11458 21.0812 8.11458C22.4217 8.11458 23.7256 8.28558 24.9653 8.6062L36.0712 27.8407C35.3475 30.4393 33.9673 32.7692 32.1199 34.6319H10.0425ZM21.0812 39.2367C17.4291 39.2367 14.0701 37.9695 11.4105 35.8534H30.7519C28.0953 37.9695 24.7333 39.2367 21.0812 39.2367ZM39.992 34.6319H33.778C35.1277 33.0685 36.1964 31.2577 36.8988 29.2759L39.992 34.6319ZM36.6423 23.6757C36.6423 24.4879 36.5781 25.2879 36.459 26.0666L26.7028 9.17112C32.5107 11.4308 36.6423 17.0799 36.6423 23.6757ZM21.0812 1.8761L24.1409 7.17712C23.1485 6.99391 22.1255 6.89314 21.0812 6.89314C20.0368 6.89314 19.0139 6.99391 18.0215 7.17712L21.0812 1.8761ZM5.5201 23.6757C5.5201 17.0769 9.6516 11.4308 15.4595 9.17112L5.70331 26.0666C5.58117 25.2879 5.5201 24.4879 5.5201 23.6757ZM5.2636 29.2759C5.96897 31.2608 7.03468 33.0715 8.38436 34.6319H2.17031L5.2636 29.2759Z" fill="url(#paint0_linear_29_17434)"/>
<path d="M27.2584 23.0646H21.4108C21.0749 23.0646 20.8 23.3394 20.8 23.6753C20.8 24.0112 21.0749 24.286 21.4108 24.286H26.6141C26.3087 27.0709 23.9422 29.242 21.081 29.242C18.0121 29.242 15.5143 26.7442 15.5143 23.6753C15.5143 20.6065 18.0121 18.1086 21.081 18.1086C22.7085 18.1086 24.2475 18.8171 25.3102 20.0538C25.53 20.3103 25.9148 20.3408 26.1713 20.121C26.4278 19.9011 26.4553 19.5163 26.2385 19.2598C24.9468 17.7514 23.0658 16.8872 21.084 16.8872C17.3403 16.8872 14.2959 19.9316 14.2959 23.6753C14.2959 27.419 17.3403 30.4635 21.084 30.4635C24.8277 30.4635 27.8721 27.419 27.8721 23.6753C27.8721 23.3364 27.5973 23.0646 27.2614 23.0646H27.2584Z" fill="url(#paint1_linear_29_17434)"/>
<defs>
<linearGradient id="paint0_linear_29_17434" x1="-0.962667" y1="42.6262" x2="38.0225" y2="12.5881" gradientUnits="userSpaceOnUse">
<stop stop-color="#00C283"/>
<stop offset="0.48" stop-color="#2D7DD7"/>
<stop offset="1" stop-color="#00FFFF"/>
</linearGradient>
<linearGradient id="paint1_linear_29_17434" x1="-1.91254" y1="41.3922" x2="37.0726" y2="11.3541" gradientUnits="userSpaceOnUse">
<stop stop-color="#00C283"/>
<stop offset="0.48" stop-color="#2D7DD7"/>
<stop offset="1" stop-color="#00FFFF"/>
</linearGradient>
</defs>
</svg>
