<svg width="14" height="14" viewBox="0 0 14 14" fill="none" xmlns="http://www.w3.org/2000/svg">
<path d="M8.8678 12.9142V1.57062C8.8678 1.20238 8.56881 0.914185 8.20517 0.914185H5.4981C5.12639 0.914185 4.83548 1.21038 4.83548 1.57062V12.9142M4.83548 12.9142H8.87588M4.83548 12.9142V9.61599C4.83548 9.24774 4.53649 8.95955 4.17285 8.95955H1.57083C1.19911 8.95955 0.908203 9.25575 0.908203 9.61599V12.2577C0.908203 12.626 1.20719 12.9142 1.57083 12.9142H4.82739H4.83548ZM8.87588 12.9142V6.09364C8.87588 5.72539 9.17487 5.4372 9.53851 5.4372H12.2456C12.6173 5.4372 12.9082 5.7334 12.9082 6.09364V12.2497C12.9082 12.618 12.6092 12.9062 12.2456 12.9062H8.87588V12.9142Z" stroke-linecap="round" stroke-linejoin="round"/>
</svg>
