<svg width="16" height="11" viewBox="0 0 16 11" fill="none" xmlns="http://www.w3.org/2000/svg">
<path d="M1.57924 5.69379L1.47101 5.91418L1.57924 6.13458C2.76286 8.54487 5.20974 10.0809 7.90804 10.0809C10.6063 10.0809 13.0532 8.54487 14.2368 6.13458L14.3451 5.91418L14.2368 5.69379C13.0532 3.2835 10.6063 1.74752 7.90804 1.74752C5.20974 1.74752 2.76286 3.2835 1.57924 5.69379ZM7.90804 4.41418C8.30587 4.41418 8.6874 4.57222 8.9687 4.85352L9.32225 4.49997L8.9687 4.85352C9.25001 5.13483 9.40804 5.51636 9.40804 5.91418C9.40804 6.31201 9.25001 6.69354 8.9687 6.97484C8.6874 7.25615 8.30587 7.41418 7.90804 7.41418C7.51022 7.41418 7.12868 7.25615 6.84738 6.97485C6.56608 6.69354 6.40804 6.31201 6.40804 5.91418C6.40804 5.51636 6.56608 5.13483 6.84738 4.85352C7.12868 4.57222 7.51022 4.41418 7.90804 4.41418ZM7.90804 1.41418C10.9584 1.41418 13.5755 3.26864 14.7011 5.91418C13.5755 8.55973 10.9584 10.4142 7.90804 10.4142C4.85771 10.4142 2.24062 8.55973 1.11499 5.91418C2.24062 3.26864 4.85771 1.41418 7.90804 1.41418Z"/>
</svg>
