<svg width="10" height="13" viewBox="0 0 10 13" fill="none" xmlns="http://www.w3.org/2000/svg">
<path d="M7.53852 0.466214C6.94307 0.163909 6.24381 0.0112305 5.4346 0.0112305H0.283203V12.4882H1.65426V7.3887H5.4346C6.24381 7.3887 6.94307 7.23602 7.53852 6.93371C8.13397 6.63141 8.59202 6.20085 8.91875 5.64204C9.24548 5.08324 9.40733 4.43588 9.40733 3.69996C9.40733 2.96405 9.24243 2.30142 8.91875 1.74872C8.59202 1.19602 8.13092 0.768519 7.53852 0.466214ZM7.30646 5.53822C6.81788 5.99015 6.14304 6.21612 5.27582 6.21612H1.65732V1.2235H5.27582C6.14304 1.2235 6.82093 1.44336 7.30646 1.88308C7.79198 2.32279 8.03626 2.92741 8.03626 3.69996C8.03626 4.47252 7.79198 5.08324 7.30646 5.53517V5.53822Z" fill="white"/>
</svg>
