<svg width="13" height="14" viewBox="0 0 13 14" fill="none" xmlns="http://www.w3.org/2000/svg">
<path d="M6.79928 8.1775H11.0071C10.9369 8.9867 10.6957 9.71346 10.2834 10.3608C9.87424 11.0082 9.33987 11.5181 8.68029 11.8846C8.02072 12.254 7.27564 12.4373 6.44201 12.4373C5.73969 12.4373 5.09233 12.3029 4.49993 12.0372C3.90448 11.7685 3.38537 11.4021 2.93955 10.9318C2.49372 10.4616 2.14562 9.91194 1.89522 9.2829C1.64483 8.65386 1.51963 7.97597 1.51963 7.25227C1.51963 6.52857 1.64483 5.85067 1.89522 5.22163C2.14562 4.59259 2.49372 4.04295 2.93955 3.57269C3.38537 3.10244 3.90448 2.73601 4.49993 2.4673C5.09538 2.19858 5.74274 2.06728 6.44201 2.06728C7.20236 2.06728 7.93216 2.2169 8.63449 2.5131C9.33681 2.8093 9.91699 3.23985 10.3811 3.79561L11.3094 2.86732C10.714 2.18942 9.99334 1.67947 9.14444 1.33442C8.29554 0.98936 7.39473 0.818359 6.44506 0.818359C5.55342 0.818359 4.72895 0.986306 3.96861 1.31915C3.20826 1.65199 2.53953 2.11308 1.9624 2.69937C1.38527 3.28871 0.936395 3.96966 0.615768 4.74833C0.295141 5.52699 0.133301 6.36062 0.133301 7.25227C0.133301 8.14391 0.292088 8.97754 0.615768 9.75621C0.936395 10.5349 1.38527 11.2189 1.9624 11.8052C2.53953 12.3945 3.20826 12.8525 3.96861 13.1854C4.72895 13.5182 5.55647 13.6862 6.44506 13.6862C7.28785 13.6862 8.07263 13.5274 8.79938 13.2129C9.52308 12.8983 10.1582 12.4586 10.6987 11.8937C11.2392 11.3288 11.6575 10.6753 11.9568 9.93332C12.253 9.19129 12.4026 8.38515 12.4026 7.51793V6.96523H6.80539V8.1775H6.79928Z" fill="white"/>
</svg>
