<svg width="14" height="14" viewBox="0 0 14 14" fill="none" xmlns="http://www.w3.org/2000/svg">
<path d="M11.1918 2.67861C10.6269 2.08926 9.97034 1.63428 9.22221 1.30755C8.47408 0.980812 7.66488 0.815918 6.79766 0.815918C5.93044 0.815918 5.12124 0.980812 4.37311 1.30755C3.62499 1.63428 2.96846 2.09232 2.40355 2.67861C1.83863 3.26795 1.39587 3.9489 1.07525 4.72756C0.754619 5.50623 0.592773 6.34596 0.592773 7.24983C0.592773 8.15369 0.751565 8.99342 1.07525 9.77209C1.39587 10.5508 1.83863 11.2348 2.40355 11.821C2.96846 12.4104 3.62499 12.8654 4.37311 13.1921C5.12124 13.5188 5.93044 13.6837 6.79766 13.6837C7.66488 13.6837 8.47408 13.5188 9.22221 13.1921C9.97034 12.8654 10.6269 12.4073 11.1918 11.821C11.7567 11.2317 12.1995 10.5508 12.5201 9.77209C12.8407 8.99342 13.0025 8.15369 13.0025 7.24983C13.0025 6.34596 12.8438 5.50623 12.5201 4.72756C12.1995 3.9489 11.7567 3.2649 11.1918 2.67861ZM11.2467 9.28351C11.0024 9.91255 10.6604 10.4653 10.2207 10.9416C9.78101 11.418 9.27107 11.7844 8.68783 12.047C8.1046 12.3096 7.47556 12.4379 6.79766 12.4379C6.11976 12.4379 5.49073 12.3066 4.90749 12.047C4.32426 11.7875 3.81431 11.418 3.37459 10.9416C2.93488 10.4653 2.59287 9.91255 2.34859 9.28351C2.1043 8.65448 1.98215 7.97047 1.98215 7.23456C1.98215 6.49864 2.1043 5.83602 2.34859 5.21003C2.59287 4.5871 2.93488 4.03745 3.37459 3.56109C3.81431 3.08473 4.32426 2.7183 4.90749 2.45569C5.49073 2.19309 6.11976 2.06483 6.79766 2.06483C7.47556 2.06483 8.1046 2.19614 8.68783 2.45569C9.27107 2.71525 9.78101 3.08473 10.2207 3.56109C10.6604 4.03745 11.0024 4.5871 11.2467 5.21003C11.491 5.83296 11.6132 6.51391 11.6132 7.24983C11.6132 7.98574 11.491 8.65142 11.2467 9.28046V9.28351Z" fill="white"/>
</svg>
