<svg width="12" height="13" viewBox="0 0 12 13" fill="none" xmlns="http://www.w3.org/2000/svg">
<path d="M9.46757 1.80369C8.91487 1.23877 8.25529 0.799056 7.48884 0.484536C6.72239 0.170017 5.88265 0.0112305 4.96658 0.0112305H0.832031V12.4882H4.96658C5.88265 12.4882 6.72239 12.3325 7.48884 12.0149C8.25529 11.7004 8.91487 11.2606 9.46757 10.6957C10.0203 10.1308 10.4478 9.47124 10.7501 8.71701C11.0524 7.96277 11.205 7.1383 11.205 6.24666C11.205 5.35501 11.0524 4.53359 10.7501 3.7763C10.4478 3.02207 10.0203 2.36249 9.46757 1.79758V1.80369ZM9.18358 8.80861C8.76218 9.56285 8.19422 10.1614 7.47968 10.6011C6.76514 11.0408 5.95899 11.2606 5.05513 11.2606H2.20309V1.24183H5.05513C5.95899 1.24183 6.76514 1.46168 7.47968 1.9014C8.19117 2.34112 8.75913 2.93962 9.18358 3.69386C9.60497 4.44809 9.81567 5.3031 9.81567 6.25276C9.81567 7.20243 9.60497 8.05743 9.18358 8.81167V8.80861Z" fill="white"/>
</svg>
